<svg width="171" height="73" viewBox="0 0 171 73" fill="none" xmlns="http://www.w3.org/2000/svg">
<path d="M25.1541 54.336C21.2714 54.336 17.7621 53.4773 14.6261 51.76C11.5274 50.0427 9.08209 47.672 7.29009 44.648C5.53543 41.5867 4.65809 38.1707 4.65809 34.4C4.65809 30.6293 5.53543 27.232 7.29009 24.208C9.08209 21.1467 11.5461 18.7573 14.6821 17.04C17.8181 15.3227 21.3274 14.464 25.2101 14.464C28.1221 14.464 30.8101 14.9493 33.2741 15.92C35.7381 16.8907 37.8288 18.3093 39.5461 20.176L36.9141 22.808C33.8528 19.7093 29.9888 18.16 25.3221 18.16C22.2234 18.16 19.4048 18.8693 16.8661 20.288C14.3274 21.7067 12.3301 23.648 10.8741 26.112C9.45543 28.576 8.74609 31.3387 8.74609 34.4C8.74609 37.4613 9.45543 40.224 10.8741 42.688C12.3301 45.152 14.3274 47.0933 16.8661 48.512C19.4048 49.9307 22.2234 50.64 25.3221 50.64C30.0261 50.64 33.8901 49.072 36.9141 45.936L39.5461 48.568C37.8288 50.4347 35.7194 51.872 33.2181 52.88C30.7541 53.8507 28.0661 54.336 25.1541 54.336ZM64.6958 54.336C60.8131 54.336 57.2851 53.4773 54.1118 51.76C50.9758 50.0053 48.5118 47.616 46.7198 44.592C44.9651 41.568 44.0878 38.1707 44.0878 34.4C44.0878 30.6293 44.9651 27.232 46.7198 24.208C48.5118 21.184 50.9758 18.8133 54.1118 17.096C57.2851 15.3413 60.8131 14.464 64.6958 14.464C68.5785 14.464 72.0691 15.3227 75.1678 17.04C78.3038 18.7573 80.7678 21.1467 82.5598 24.208C84.3518 27.232 85.2478 30.6293 85.2478 34.4C85.2478 38.1707 84.3518 41.5867 82.5598 44.648C80.7678 47.672 78.3038 50.0427 75.1678 51.76C72.0691 53.4773 68.5785 54.336 64.6958 54.336ZM64.6958 50.64C67.7944 50.64 70.5944 49.9493 73.0958 48.568C75.5971 47.1493 77.5571 45.208 78.9758 42.744C80.3945 40.2427 81.1038 37.4613 81.1038 34.4C81.1038 31.3387 80.3945 28.576 78.9758 26.112C77.5571 23.6107 75.5971 21.6693 73.0958 20.288C70.5944 18.8693 67.7944 18.16 64.6958 18.16C61.5971 18.16 58.7784 18.8693 56.2398 20.288C53.7384 21.6693 51.7598 23.6107 50.3038 26.112C48.8851 28.576 48.1758 31.3387 48.1758 34.4C48.1758 37.4613 48.8851 40.2427 50.3038 42.744C51.7598 45.208 53.7384 47.1493 56.2398 48.568C58.7784 49.9493 61.5971 50.64 64.6958 50.64ZM127.296 14.8V54H123.88L98.6803 22.192V54H94.5363V14.8H97.9523L123.208 46.608V14.8H127.296ZM153.531 40.448V54H149.443V40.448L133.763 14.8H138.187L151.627 36.808L165.067 14.8H169.211L153.531 40.448Z" fill="#312D2D"/>
<path d="M11.6393 64V71H10.9093V64.64H6.47934V71H5.74934V64H11.6393ZM18.9313 69.13H15.0313L14.1913 71H13.4213L16.6213 64H17.3513L20.5513 71H19.7713L18.9313 69.13ZM18.6613 68.53L16.9813 64.77L15.3013 68.53H18.6613ZM28.1927 64V71H27.4627V67.77H23.0827V71H22.3427V64H23.0827V67.12H27.4627V64H28.1927ZM35.9556 70.36V71H31.0056V64H35.8056V64.64H31.7456V67.13H35.3656V67.76H31.7456V70.36H35.9556ZM43.5374 64V71H42.8074V64.64H39.4274L39.3474 66.98C39.314 67.9467 39.234 68.7267 39.1074 69.32C38.9874 69.9067 38.8007 70.3467 38.5474 70.64C38.294 70.9267 37.9574 71.07 37.5374 71.07C37.3574 71.07 37.1707 71.0467 36.9774 71L37.0374 70.34C37.1507 70.3667 37.2607 70.38 37.3674 70.38C37.6607 70.38 37.8974 70.2633 38.0774 70.03C38.264 69.7967 38.404 69.4367 38.4974 68.95C38.5907 68.4567 38.654 67.8067 38.6874 67L38.7874 64H43.5374ZM49.2789 66.5C50.1056 66.5 50.7356 66.6867 51.1689 67.06C51.6089 67.4333 51.8289 67.98 51.8289 68.7C51.8289 69.4533 51.5956 70.0267 51.1289 70.42C50.6689 70.8067 50.0023 71 49.1289 71H46.3489V64H47.0789V66.5H49.2789ZM49.1089 70.41C49.7556 70.41 50.2456 70.2667 50.5789 69.98C50.9189 69.6933 51.0889 69.27 51.0889 68.71C51.0889 67.6367 50.4289 67.1 49.1089 67.1H47.0789V70.41H49.1089ZM61.4457 69.13H57.5457L56.7057 71H55.9357L59.1357 64H59.8657L63.0657 71H62.2857L61.4457 69.13ZM61.1757 68.53L59.4957 64.77L57.8157 68.53H61.1757ZM71.3067 70.36V72.57H70.6167V71H64.5067L64.4967 72.57H63.8067L63.8167 70.36H64.1667C64.6267 70.3333 64.9467 69.97 65.1267 69.27C65.3067 68.5633 65.4167 67.5633 65.4567 66.27L65.5367 64H70.2567V70.36H71.3067ZM66.1167 66.34C66.0833 67.4067 66 68.2867 65.8667 68.98C65.74 69.6667 65.5233 70.1267 65.2167 70.36H69.5267V64.64H66.1767L66.1167 66.34ZM80.5361 64V71H79.8261V65.4L77.0761 70.11H76.7261L73.9761 65.43V71H73.2661V64H73.8761L76.9161 69.19L79.9261 64H80.5361ZM83.345 64H84.075V69.8L88.555 64H89.225V71H88.495V65.21L84.015 71H83.345V64ZM97.8872 64V71H97.1572V67.77H92.7772V71H92.0372V64H92.7772V67.12H97.1572V64H97.8872ZM100.7 64H101.43V69.8L105.91 64H106.58V71H105.85V65.21L101.37 71H100.7V64ZM112.452 71.06C111.759 71.06 111.132 70.9067 110.572 70.6C110.019 70.2933 109.582 69.87 109.262 69.33C108.949 68.7833 108.792 68.1733 108.792 67.5C108.792 66.8267 108.949 66.22 109.262 65.68C109.582 65.1333 110.022 64.7067 110.582 64.4C111.142 64.0933 111.769 63.94 112.462 63.94C112.982 63.94 113.462 64.0267 113.902 64.2C114.342 64.3733 114.716 64.6267 115.022 64.96L114.552 65.43C114.006 64.8767 113.316 64.6 112.482 64.6C111.929 64.6 111.426 64.7267 110.972 64.98C110.519 65.2333 110.162 65.58 109.902 66.02C109.649 66.46 109.522 66.9533 109.522 67.5C109.522 68.0467 109.649 68.54 109.902 68.98C110.162 69.42 110.519 69.7667 110.972 70.02C111.426 70.2733 111.929 70.4 112.482 70.4C113.322 70.4 114.012 70.12 114.552 69.56L115.022 70.03C114.716 70.3633 114.339 70.62 113.892 70.8C113.452 70.9733 112.972 71.06 112.452 71.06ZM121.493 64.64H119.033V71H118.303V64.64H115.843V64H121.493V64.64ZM125.862 64C126.755 64 127.455 64.2133 127.962 64.64C128.468 65.0667 128.722 65.6533 128.722 66.4C128.722 67.1467 128.468 67.7333 127.962 68.16C127.455 68.58 126.755 68.79 125.862 68.79H123.982V71H123.242V64H125.862ZM125.842 68.14C126.535 68.14 127.065 67.99 127.432 67.69C127.798 67.3833 127.982 66.9533 127.982 66.4C127.982 65.8333 127.798 65.4 127.432 65.1C127.065 64.7933 126.535 64.64 125.842 64.64H123.982V68.14H125.842ZM134.822 69.13H130.922L130.082 71H129.312L132.512 64H133.242L136.442 71H135.662L134.822 69.13ZM134.552 68.53L132.872 64.77L131.192 68.53H134.552ZM142.462 64.64H140.002V71H139.272V64.64H136.812V64H142.462V64.64ZM147.183 71.06C146.49 71.06 145.86 70.9067 145.293 70.6C144.733 70.2867 144.293 69.86 143.973 69.32C143.66 68.78 143.503 68.1733 143.503 67.5C143.503 66.8267 143.66 66.22 143.973 65.68C144.293 65.14 144.733 64.7167 145.293 64.41C145.86 64.0967 146.49 63.94 147.183 63.94C147.876 63.94 148.5 64.0933 149.053 64.4C149.613 64.7067 150.053 65.1333 150.373 65.68C150.693 66.22 150.853 66.8267 150.853 67.5C150.853 68.1733 150.693 68.7833 150.373 69.33C150.053 69.87 149.613 70.2933 149.053 70.6C148.5 70.9067 147.876 71.06 147.183 71.06ZM147.183 70.4C147.736 70.4 148.236 70.2767 148.683 70.03C149.13 69.7767 149.48 69.43 149.733 68.99C149.986 68.5433 150.113 68.0467 150.113 67.5C150.113 66.9533 149.986 66.46 149.733 66.02C149.48 65.5733 149.13 65.2267 148.683 64.98C148.236 64.7267 147.736 64.6 147.183 64.6C146.63 64.6 146.126 64.7267 145.673 64.98C145.226 65.2267 144.873 65.5733 144.613 66.02C144.36 66.46 144.233 66.9533 144.233 67.5C144.233 68.0467 144.36 68.5433 144.613 68.99C144.873 69.43 145.226 69.7767 145.673 70.03C146.126 70.2767 146.63 70.4 147.183 70.4ZM155.689 64C156.582 64 157.282 64.2133 157.789 64.64C158.296 65.0667 158.549 65.6533 158.549 66.4C158.549 67.1467 158.296 67.7333 157.789 68.16C157.282 68.58 156.582 68.79 155.689 68.79H153.809V71H153.069V64H155.689ZM155.669 68.14C156.362 68.14 156.892 67.99 157.259 67.69C157.626 67.3833 157.809 66.9533 157.809 66.4C157.809 65.8333 157.626 65.4 157.259 65.1C156.892 64.7933 156.362 64.64 155.669 64.64H153.809V68.14H155.669ZM164.649 69.13H160.749L159.909 71H159.139L162.339 64H163.069L166.269 71H165.489L164.649 69.13ZM164.379 68.53L162.699 64.77L161.019 68.53H164.379Z" fill="#312D2D"/>
</svg>
