<svg width="171" height="73" viewBox="0 0 171 73" fill="none" xmlns="http://www.w3.org/2000/svg">
<path d="M25.1541 54.336C21.2714 54.336 17.7621 53.4773 14.6261 51.76C11.5274 50.0427 9.08209 47.672 7.29009 44.648C5.53543 41.5867 4.65809 38.1707 4.65809 34.4C4.65809 30.6293 5.53543 27.232 7.29009 24.208C9.08209 21.1467 11.5461 18.7573 14.6821 17.04C17.8181 15.3227 21.3274 14.464 25.2101 14.464C28.1221 14.464 30.8101 14.9493 33.2741 15.92C35.7381 16.8907 37.8288 18.3093 39.5461 20.176L36.9141 22.808C33.8528 19.7093 29.9888 18.16 25.3221 18.16C22.2234 18.16 19.4048 18.8693 16.8661 20.288C14.3274 21.7067 12.3301 23.648 10.8741 26.112C9.45543 28.576 8.74609 31.3387 8.74609 34.4C8.74609 37.4613 9.45543 40.224 10.8741 42.688C12.3301 45.152 14.3274 47.0933 16.8661 48.512C19.4048 49.9307 22.2234 50.64 25.3221 50.64C30.0261 50.64 33.8901 49.072 36.9141 45.936L39.5461 48.568C37.8288 50.4347 35.7194 51.872 33.2181 52.88C30.7541 53.8507 28.0661 54.336 25.1541 54.336ZM64.6958 54.336C60.8131 54.336 57.2851 53.4773 54.1118 51.76C50.9758 50.0053 48.5118 47.616 46.7198 44.592C44.9651 41.568 44.0878 38.1707 44.0878 34.4C44.0878 30.6293 44.9651 27.232 46.7198 24.208C48.5118 21.184 50.9758 18.8133 54.1118 17.096C57.2851 15.3413 60.8131 14.464 64.6958 14.464C68.5785 14.464 72.0691 15.3227 75.1678 17.04C78.3038 18.7573 80.7678 21.1467 82.5598 24.208C84.3518 27.232 85.2478 30.6293 85.2478 34.4C85.2478 38.1707 84.3518 41.5867 82.5598 44.648C80.7678 47.672 78.3038 50.0427 75.1678 51.76C72.0691 53.4773 68.5785 54.336 64.6958 54.336ZM64.6958 50.64C67.7944 50.64 70.5944 49.9493 73.0958 48.568C75.5971 47.1493 77.5571 45.208 78.9758 42.744C80.3945 40.2427 81.1038 37.4613 81.1038 34.4C81.1038 31.3387 80.3945 28.576 78.9758 26.112C77.5571 23.6107 75.5971 21.6693 73.0958 20.288C70.5944 18.8693 67.7944 18.16 64.6958 18.16C61.5971 18.16 58.7784 18.8693 56.2398 20.288C53.7384 21.6693 51.7598 23.6107 50.3038 26.112C48.8851 28.576 48.1758 31.3387 48.1758 34.4C48.1758 37.4613 48.8851 40.2427 50.3038 42.744C51.7598 45.208 53.7384 47.1493 56.2398 48.568C58.7784 49.9493 61.5971 50.64 64.6958 50.64ZM127.296 14.8V54H123.88L98.6803 22.192V54H94.5363V14.8H97.9523L123.208 46.608V14.8H127.296ZM153.531 40.448V54H149.443V40.448L133.763 14.8H138.187L151.627 36.808L165.067 14.8H169.211L153.531 40.448Z" fill="#312D2D"/>
<path d="M1.18 64H1.91V69.8L6.39 64H7.06V71H6.33V65.21L1.85 71H1.18V64ZM9.70219 65.74H10.4122V68.07H13.7222V65.74H14.4322V71H13.7222V68.68H10.4122V71H9.70219V65.74ZM20.6002 66.37H18.6102V71H17.9002V66.37H15.9102V65.74H20.6002V66.37ZM26.4327 68.59H22.0327C22.0727 69.1367 22.2827 69.58 22.6627 69.92C23.0427 70.2533 23.5227 70.42 24.1027 70.42C24.4293 70.42 24.7293 70.3633 25.0027 70.25C25.276 70.13 25.5127 69.9567 25.7127 69.73L26.1127 70.19C25.8793 70.47 25.586 70.6833 25.2327 70.83C24.886 70.9767 24.5027 71.05 24.0827 71.05C23.5427 71.05 23.0627 70.9367 22.6427 70.71C22.2293 70.4767 21.906 70.1567 21.6727 69.75C21.4393 69.3433 21.3227 68.8833 21.3227 68.37C21.3227 67.8567 21.4327 67.3967 21.6527 66.99C21.8793 66.5833 22.186 66.2667 22.5727 66.04C22.966 65.8133 23.406 65.7 23.8927 65.7C24.3793 65.7 24.816 65.8133 25.2027 66.04C25.5893 66.2667 25.8927 66.5833 26.1127 66.99C26.3327 67.39 26.4427 67.85 26.4427 68.37L26.4327 68.59ZM23.8927 66.31C23.386 66.31 22.9593 66.4733 22.6127 66.8C22.2727 67.12 22.0793 67.54 22.0327 68.06H25.7627C25.716 67.54 25.5193 67.12 25.1727 66.8C24.8327 66.4733 24.406 66.31 23.8927 66.31ZM31.1743 65.7C31.6676 65.7 32.1143 65.8133 32.5143 66.04C32.9143 66.26 33.2276 66.5733 33.4543 66.98C33.681 67.3867 33.7943 67.85 33.7943 68.37C33.7943 68.8967 33.681 69.3633 33.4543 69.77C33.2276 70.1767 32.9143 70.4933 32.5143 70.72C32.121 70.94 31.6743 71.05 31.1743 71.05C30.7476 71.05 30.361 70.9633 30.0143 70.79C29.6743 70.61 29.3943 70.35 29.1743 70.01V72.94H28.4643V65.74H29.1443V66.78C29.3576 66.4333 29.6376 66.1667 29.9843 65.98C30.3376 65.7933 30.7343 65.7 31.1743 65.7ZM31.1243 70.42C31.491 70.42 31.8243 70.3367 32.1243 70.17C32.4243 69.9967 32.6576 69.7533 32.8243 69.44C32.9976 69.1267 33.0843 68.77 33.0843 68.37C33.0843 67.97 32.9976 67.6167 32.8243 67.31C32.6576 66.9967 32.4243 66.7533 32.1243 66.58C31.8243 66.4067 31.491 66.32 31.1243 66.32C30.751 66.32 30.4143 66.4067 30.1143 66.58C29.821 66.7533 29.5876 66.9967 29.4143 67.31C29.2476 67.6167 29.1643 67.97 29.1643 68.37C29.1643 68.77 29.2476 69.1267 29.4143 69.44C29.5876 69.7533 29.821 69.9967 30.1143 70.17C30.4143 70.3367 30.751 70.42 31.1243 70.42ZM35.7698 65.74H36.4798V68.07H39.7898V65.74H40.4998V71H39.7898V68.68H36.4798V71H35.7698V65.74ZM47.5678 68.59H43.1678C43.2078 69.1367 43.4178 69.58 43.7978 69.92C44.1778 70.2533 44.6578 70.42 45.2378 70.42C45.5645 70.42 45.8645 70.3633 46.1378 70.25C46.4111 70.13 46.6478 69.9567 46.8478 69.73L47.2478 70.19C47.0145 70.47 46.7211 70.6833 46.3678 70.83C46.0211 70.9767 45.6378 71.05 45.2178 71.05C44.6778 71.05 44.1978 70.9367 43.7778 70.71C43.3645 70.4767 43.0411 70.1567 42.8078 69.75C42.5745 69.3433 42.4578 68.8833 42.4578 68.37C42.4578 67.8567 42.5678 67.3967 42.7878 66.99C43.0145 66.5833 43.3211 66.2667 43.7078 66.04C44.1011 65.8133 44.5411 65.7 45.0278 65.7C45.5145 65.7 45.9511 65.8133 46.3378 66.04C46.7245 66.2667 47.0278 66.5833 47.2478 66.99C47.4678 67.39 47.5778 67.85 47.5778 68.37L47.5678 68.59ZM45.0278 66.31C44.5211 66.31 44.0945 66.4733 43.7478 66.8C43.4078 67.12 43.2145 67.54 43.1678 68.06H46.8978C46.8511 67.54 46.6545 67.12 46.3078 66.8C45.9678 66.4733 45.5411 66.31 45.0278 66.31ZM53.0651 66.37H51.0751V71H50.3651V66.37H48.3751V65.74H53.0651V66.37ZM53.8973 67.98H56.5173V68.6H53.8973V67.98ZM64.4556 65.74V71H63.8056V66.84L61.6756 70.36H61.3556L59.2256 66.83V71H58.5756V65.74H59.2956L61.5256 69.53L63.7956 65.74H64.4556ZM68.736 65.7C69.4227 65.7 69.9493 65.8733 70.316 66.22C70.6827 66.56 70.866 67.0667 70.866 67.74V71H70.186V70.18C70.026 70.4533 69.7893 70.6667 69.476 70.82C69.1693 70.9733 68.8027 71.05 68.376 71.05C67.7893 71.05 67.3227 70.91 66.976 70.63C66.6293 70.35 66.456 69.98 66.456 69.52C66.456 69.0733 66.616 68.7133 66.936 68.44C67.2627 68.1667 67.7793 68.03 68.486 68.03H70.156V67.71C70.156 67.2567 70.0293 66.9133 69.776 66.68C69.5227 66.44 69.1527 66.32 68.666 66.32C68.3327 66.32 68.0127 66.3767 67.706 66.49C67.3993 66.5967 67.136 66.7467 66.916 66.94L66.596 66.41C66.8627 66.1833 67.1827 66.01 67.556 65.89C67.9293 65.7633 68.3227 65.7 68.736 65.7ZM68.486 70.49C68.886 70.49 69.2293 70.4 69.516 70.22C69.8027 70.0333 70.016 69.7667 70.156 69.42V68.56H68.506C67.606 68.56 67.156 68.8733 67.156 69.5C67.156 69.8067 67.2727 70.05 67.506 70.23C67.7393 70.4033 68.066 70.49 68.486 70.49ZM76.9261 66.37H73.9161V71H73.2061V65.74H76.9261V66.37ZM80.2122 65.7C80.8989 65.7 81.4255 65.8733 81.7922 66.22C82.1589 66.56 82.3422 67.0667 82.3422 67.74V71H81.6622V70.18C81.5022 70.4533 81.2655 70.6667 80.9522 70.82C80.6455 70.9733 80.2789 71.05 79.8522 71.05C79.2655 71.05 78.7989 70.91 78.4522 70.63C78.1055 70.35 77.9322 69.98 77.9322 69.52C77.9322 69.0733 78.0922 68.7133 78.4122 68.44C78.7389 68.1667 79.2555 68.03 79.9622 68.03H81.6322V67.71C81.6322 67.2567 81.5055 66.9133 81.2522 66.68C80.9989 66.44 80.6289 66.32 80.1422 66.32C79.8089 66.32 79.4889 66.3767 79.1822 66.49C78.8755 66.5967 78.6122 66.7467 78.3922 66.94L78.0722 66.41C78.3389 66.1833 78.6589 66.01 79.0322 65.89C79.4055 65.7633 79.7989 65.7 80.2122 65.7ZM79.9622 70.49C80.3622 70.49 80.7055 70.4 80.9922 70.22C81.2789 70.0333 81.4922 69.7667 81.6322 69.42V68.56H79.9822C79.0822 68.56 78.6322 68.8733 78.6322 69.5C78.6322 69.8067 78.7489 70.05 78.9822 70.23C79.2155 70.4033 79.5422 70.49 79.9622 70.49ZM87.1348 68.26C87.5082 68.3467 87.7948 68.4967 87.9948 68.71C88.2015 68.9233 88.3048 69.1833 88.3048 69.49C88.3048 69.7967 88.1982 70.07 87.9848 70.31C87.7782 70.55 87.4948 70.7367 87.1348 70.87C86.7748 70.9967 86.3782 71.06 85.9448 71.06C85.5648 71.06 85.1915 71.0067 84.8248 70.9C84.4582 70.7867 84.1382 70.6233 83.8648 70.41L84.1048 69.88C84.3448 70.06 84.6248 70.2 84.9448 70.3C85.2648 70.4 85.5882 70.45 85.9148 70.45C86.4015 70.45 86.7982 70.36 87.1048 70.18C87.4182 69.9933 87.5748 69.7433 87.5748 69.43C87.5748 69.15 87.4482 68.9333 87.1948 68.78C86.9415 68.62 86.5948 68.54 86.1548 68.54H85.2548V68.02H86.1148C86.5082 68.02 86.8248 67.9467 87.0648 67.8C87.3048 67.6467 87.4248 67.4433 87.4248 67.19C87.4248 66.91 87.2882 66.69 87.0148 66.53C86.7482 66.37 86.3982 66.29 85.9648 66.29C85.3982 66.29 84.8382 66.4333 84.2848 66.72L84.0848 66.17C84.7115 65.8433 85.3615 65.68 86.0348 65.68C86.4348 65.68 86.7948 65.74 87.1148 65.86C87.4415 65.9733 87.6948 66.1367 87.8748 66.35C88.0615 66.5633 88.1548 66.81 88.1548 67.09C88.1548 67.3567 88.0615 67.5933 87.8748 67.8C87.6948 68.0067 87.4482 68.16 87.1348 68.26ZM90.3666 65.74H91.0766V69.92L94.5866 65.74H95.2166V71H94.5066V66.82L91.0066 71H90.3666V65.74ZM97.7014 65.74H98.4114V68.07H101.721V65.74H102.431V71H101.721V68.68H98.4114V71H97.7014V65.74ZM112.437 65.74L109.807 71.63C109.593 72.1233 109.347 72.4733 109.067 72.68C108.787 72.8867 108.45 72.99 108.057 72.99C107.803 72.99 107.567 72.95 107.347 72.87C107.127 72.79 106.937 72.67 106.777 72.51L107.107 71.98C107.373 72.2467 107.693 72.38 108.067 72.38C108.307 72.38 108.51 72.3133 108.677 72.18C108.85 72.0467 109.01 71.82 109.157 71.5L109.387 70.99L107.037 65.74H107.777L109.757 70.21L111.737 65.74H112.437ZM115.903 68.66H114.703V71H113.993V65.74H114.703V68.05H115.913L117.763 65.74H118.533L116.463 68.29L118.683 71H117.843L115.903 68.66ZM122.963 65.7C123.457 65.7 123.903 65.8133 124.303 66.04C124.703 66.26 125.017 66.5733 125.243 66.98C125.47 67.3867 125.583 67.85 125.583 68.37C125.583 68.8967 125.47 69.3633 125.243 69.77C125.017 70.1767 124.703 70.4933 124.303 70.72C123.91 70.94 123.463 71.05 122.963 71.05C122.537 71.05 122.15 70.9633 121.803 70.79C121.463 70.61 121.183 70.35 120.963 70.01V72.94H120.253V65.74H120.933V66.78C121.147 66.4333 121.427 66.1667 121.773 65.98C122.127 65.7933 122.523 65.7 122.963 65.7ZM122.913 70.42C123.28 70.42 123.613 70.3367 123.913 70.17C124.213 69.9967 124.447 69.7533 124.613 69.44C124.787 69.1267 124.873 68.77 124.873 68.37C124.873 67.97 124.787 67.6167 124.613 67.31C124.447 66.9967 124.213 66.7533 123.913 66.58C123.613 66.4067 123.28 66.32 122.913 66.32C122.54 66.32 122.203 66.4067 121.903 66.58C121.61 66.7533 121.377 66.9967 121.203 67.31C121.037 67.6167 120.953 67.97 120.953 68.37C120.953 68.77 121.037 69.1267 121.203 69.44C121.377 69.7533 121.61 69.9967 121.903 70.17C122.203 70.3367 122.54 70.42 122.913 70.42ZM129.34 65.7C130.026 65.7 130.553 65.8733 130.92 66.22C131.286 66.56 131.47 67.0667 131.47 67.74V71H130.79V70.18C130.63 70.4533 130.393 70.6667 130.08 70.82C129.773 70.9733 129.406 71.05 128.98 71.05C128.393 71.05 127.926 70.91 127.58 70.63C127.233 70.35 127.06 69.98 127.06 69.52C127.06 69.0733 127.22 68.7133 127.54 68.44C127.866 68.1667 128.383 68.03 129.09 68.03H130.76V67.71C130.76 67.2567 130.633 66.9133 130.38 66.68C130.126 66.44 129.756 66.32 129.27 66.32C128.936 66.32 128.616 66.3767 128.31 66.49C128.003 66.5967 127.74 66.7467 127.52 66.94L127.2 66.41C127.466 66.1833 127.786 66.01 128.16 65.89C128.533 65.7633 128.926 65.7 129.34 65.7ZM129.09 70.49C129.49 70.49 129.833 70.4 130.12 70.22C130.406 70.0333 130.62 69.7667 130.76 69.42V68.56H129.11C128.21 68.56 127.76 68.8733 127.76 69.5C127.76 69.8067 127.876 70.05 128.11 70.23C128.343 70.4033 128.67 70.49 129.09 70.49ZM141.07 65.74V71H133.81V65.74H134.52V70.38H137.1V65.74H137.81V70.38H140.36V65.74H141.07ZM148.147 68.59H143.747C143.787 69.1367 143.997 69.58 144.377 69.92C144.757 70.2533 145.237 70.42 145.817 70.42C146.143 70.42 146.443 70.3633 146.717 70.25C146.99 70.13 147.227 69.9567 147.427 69.73L147.827 70.19C147.593 70.47 147.3 70.6833 146.947 70.83C146.6 70.9767 146.217 71.05 145.797 71.05C145.257 71.05 144.777 70.9367 144.357 70.71C143.943 70.4767 143.62 70.1567 143.387 69.75C143.153 69.3433 143.037 68.8833 143.037 68.37C143.037 67.8567 143.147 67.3967 143.367 66.99C143.593 66.5833 143.9 66.2667 144.287 66.04C144.68 65.8133 145.12 65.7 145.607 65.7C146.093 65.7 146.53 65.8133 146.917 66.04C147.303 66.2667 147.607 66.5833 147.827 66.99C148.047 67.39 148.157 67.85 148.157 68.37L148.147 68.59ZM145.607 66.31C145.1 66.31 144.673 66.4733 144.327 66.8C143.987 67.12 143.793 67.54 143.747 68.06H147.477C147.43 67.54 147.233 67.12 146.887 66.8C146.547 66.4733 146.12 66.31 145.607 66.31ZM150.178 65.74H150.888V68.07H154.198V65.74H154.908V71H154.198V68.68H150.888V71H150.178V65.74ZM157.376 65.74H158.086V69.92L161.596 65.74H162.226V71H161.516V66.82L158.016 71H157.376V65.74ZM164.711 65.74H165.421V69.92L168.931 65.74H169.561V71H168.851V66.82L165.351 71H164.711V65.74ZM167.101 64.98C166.648 64.98 166.288 64.8667 166.021 64.64C165.755 64.4133 165.618 64.0933 165.611 63.68H166.121C166.128 63.94 166.221 64.15 166.401 64.31C166.581 64.4633 166.815 64.54 167.101 64.54C167.388 64.54 167.621 64.4633 167.801 64.31C167.988 64.15 168.085 63.94 168.091 63.68H168.601C168.595 64.0933 168.455 64.4133 168.181 64.64C167.915 64.8667 167.555 64.98 167.101 64.98Z" fill="black"/>
</svg>
